<?xml version="1.0" standalone="no"?>
<!DOCTYPE svg PUBLIC "-//W3C//DTD SVG 1.1//EN" "http://www.w3.org/Graphics/SVG/1.1/DTD/svg11.dtd" >
<svg xmlns="http://www.w3.org/2000/svg">
<metadata>
This is a custom SVG webfont generated by Font Squirrel.
Designer    : Ray Larabie
Foundry     : Larabie Fonts
Foundry URL : http://www.larabiefonts.com
</metadata>
<defs>
<font id="webfonto4cY97Jx" horiz-adv-x="551" >
<font-face units-per-em="1000" ascent="800" descent="-200" />
<missing-glyph horiz-adv-x="347" />
<glyph unicode=" "  horiz-adv-x="347" />
<glyph unicode="&#x09;" horiz-adv-x="347" />
<glyph unicode="&#xa0;" horiz-adv-x="347" />
<glyph unicode="!" horiz-adv-x="295" d="M199 342q-1 -10 -4 -59l-7 -118h-79l-7 118q-2 37 -4 59v229h101v-229zM215 63q0 -27 -19.5 -46.5t-46.5 -19.5t-46.5 19.5t-19.5 46.5t19.5 46.5t46.5 19.5t46.5 -19.5t19.5 -46.5z" />
<glyph unicode="&#x22;" horiz-adv-x="462" d="M379 594l-21 -260h-65l-20 260h106zM191 594l-20 -260h-66l-20 260h106z" />
<glyph unicode="#" horiz-adv-x="695" d="M629 352h-121l-33 -133h110v-83h-131l-35 -139h-79l34 139h-115l-35 -139h-81l35 139h-106v83h126l33 133h-115v83h135l34 136h81l-34 -136h116l33 136h81l-33 -136h100v-83zM429 353h-117l-34 -135h117z" />
<glyph unicode="$" horiz-adv-x="583" d="M512 202q0 -128 -158 -153v-52h-122v50q-88 9 -160 39l43 95q45 -27 117 -36v116q-158 37 -158 141q0 91 158 117v52h122v-48q79 -8 133 -37l-37 -97q-26 18 -96 31v-73q158 -31 158 -145zM232 364v58q-29 -9 -29 -33q0 -17 29 -25zM390 202q0 26 -36 37v-89q36 14 36 52 z" />
<glyph unicode="%" horiz-adv-x="650" d="M274 462q0 -44 -31.5 -75.5t-75.5 -31.5q-45 0 -76.5 31t-31.5 76t31.5 76.5t76.5 31.5t76 -31.5t31 -76.5zM482 570l-248 -572h-82l248 572h82zM585 106q0 -45 -31 -76.5t-76 -31.5t-76 31.5t-31 76.5q0 44 31.5 75.5t75.5 31.5q45 0 76 -31t31 -76zM239 462 q0 30 -21 51.5t-51 21.5t-51.5 -21.5t-21.5 -51.5t21.5 -51t51.5 -21t51 21t21 51zM551 106q0 30 -21.5 51t-51.5 21t-51 -21t-21 -51t21 -51.5t51 -21.5t51.5 21.5t21.5 51.5z" />
<glyph unicode="&#x26;" horiz-adv-x="735" d="M704 -2h-176l-57 52q-93 -64 -185 -64q-93 0 -153 40q-70 46 -70 135q0 53 29 89q21 26 75 59q-75 61 -75 139q0 71 69 106q55 28 133 28q188 0 188 -134l-132 -38q0 73 -63 73q-61 0 -61 -51q0 -29 99 -112l132 -104q24 36 25 111h132v-38q0 -92 -52 -158zM379 134 l-133 109q-26 -19 -31 -24q-13 -14 -13 -35q0 -40 28 -65t68 -25q52 0 81 40z" />
<glyph unicode="'" horiz-adv-x="300" d="M222 528q0 -57 -25 -93q-29 -40 -84 -40v24q44 0 49 44q-30 0 -50.5 17.5t-20.5 47.5q0 28 19 47t47 19t46.5 -19t18.5 -47z" />
<glyph unicode="(" horiz-adv-x="369" d="M317 -146h-118q-126 173 -126 370q0 196 126 370h118q-149 -160 -149 -370q0 -189 149 -370z" />
<glyph unicode=")" horiz-adv-x="399" d="M318 224q0 -108 -31 -196q-30 -83 -96 -174h-117q79 97 111 170q38 88 38 200q0 169 -94 303q-10 14 -55 67h117q127 -174 127 -370z" />
<glyph unicode="*" horiz-adv-x="700" d="M629 253l-48 -70l-178 117l6 -193h-89l4 188l-174 -113l-47 71l191 109l-191 111l47 71l174 -115l-4 189h89l-5 -189l176 113l48 -70l-192 -109z" />
<glyph unicode="+" horiz-adv-x="478" d="M402 255h-86v-88h-102v88h-91v102h91v89h102v-89h86v-102z" />
<glyph unicode="," horiz-adv-x="285" d="M214 63q0 -57 -26 -93q-29 -41 -84 -41v25q47 0 49 43q-31 0 -51 17.5t-20 48.5q0 27 19.5 46.5t46.5 19.5t46.5 -19.5t19.5 -46.5z" />
<glyph unicode="-" horiz-adv-x="372" d="M287 255h-193v102h193v-102z" />
<glyph unicode="&#x2010;" horiz-adv-x="372" d="M287 255h-193v102h193v-102z" />
<glyph unicode="." horiz-adv-x="285" d="M215 63q0 -28 -19 -47t-47 -19q-27 0 -46 19.5t-19 46.5t19 46.5t46 19.5q28 0 47 -19t19 -47z" />
<glyph unicode="/" horiz-adv-x="450" d="M409 627l-265 -670h-97l264 670h98z" />
<glyph unicode="0" horiz-adv-x="596" d="M530 284q0 -138 -43 -208q-54 -90 -183 -90t-183 90q-43 70 -43 208q0 137 43 208q54 89 183 89t183 -89q43 -71 43 -208zM398 284q0 80 -12 119q-21 69 -82 69q-64 0 -84 -69q-10 -35 -10 -120q0 -83 11 -119q21 -68 83 -68q61 0 82 69q12 39 12 119z" />
<glyph unicode="1" horiz-adv-x="322" d="M250 -3h-121v428h-60v97q76 0 76 50h105v-575z" />
<glyph unicode="2" horiz-adv-x="549" d="M487 -3h-417v54q0 69 42 130.5t101 96.5q37 21 125 75q29 26 29 61q0 27 -29 41q-23 11 -54 11q-57 0 -141 -65l-73 92q94 82 226 82q87 0 136.5 -44t49.5 -130q0 -79 -73 -127q-18 -12 -132 -81q-55 -42 -55 -82h265v-114z" />
<glyph unicode="3" horiz-adv-x="544" d="M473 175q0 -90 -65 -138q-57 -43 -150 -43q-141 0 -193 93l104 59q21 -51 90 -51q95 0 95 82q0 60 -46 77q-22 8 -97 8v107q61 0 73 3q38 10 38 54q0 57 -63 57q-54 0 -62 -43l-101 34q17 49 62 77.5t99 28.5q72 0 120 -38q53 -41 53 -111q0 -59 -55 -103q43 -7 72 -59 q26 -46 26 -94z" />
<glyph unicode="4" horiz-adv-x="606" d="M544 132h-77v-136h-125v136h-275v117l262 322h138v-330h77v-109zM342 241v181l-145 -181h145z" />
<glyph unicode="5" horiz-adv-x="570" d="M505 190q0 -100 -71 -154q-65 -50 -167 -50q-122 0 -203 50l63 101q76 -47 138 -47q52 0 86 24q40 28 40 77q0 40 -31 69t-71 29q-54 0 -99 -44l-115 40q23 173 31 286h361v-110h-258l-9 -91q33 23 92 23q98 0 155.5 -53t57.5 -150z" />
<glyph unicode="6" horiz-adv-x="557" d="M493 191q0 -98 -59.5 -149.5t-159.5 -51.5q-99 0 -153 67q-51 62 -51 163q0 140 78 242q86 112 222 112l20 -95q-126 0 -177 -125q36 24 93 24q84 0 135.5 -51.5t51.5 -135.5zM381 185q0 43 -26 69t-69 26t-71 -26t-28 -69t26 -69t69 -26t71 26t28 69z" />
<glyph unicode="7" horiz-adv-x="550" d="M486 461q-98 -67 -154 -207q-50 -124 -50 -257h-132q0 127 42 251q49 145 135 209h-265v114h424v-110z" />
<glyph unicode="8" horiz-adv-x="562" d="M504 175q0 -89 -64 -138q-58 -43 -150 -43t-150 44q-65 48 -65 137q0 46 27.5 90t68.5 63q-51 46 -51 104q0 64 54 107q50 41 115 41q67 0 118 -40q55 -44 55 -109q0 -59 -56 -103q43 -7 72 -59q26 -46 26 -94zM354 426q0 57 -63 57q-64 0 -64 -57t64 -57q63 0 63 57z M386 177q0 85 -95 85q-96 0 -96 -85q0 -38 30 -61q27 -21 66 -21q95 0 95 82z" />
<glyph unicode="9" horiz-adv-x="567" d="M503 342q0 -140 -78 -242q-86 -112 -222 -112l-20 95q126 0 177 124q-36 -23 -93 -23q-84 0 -135.5 51.5t-51.5 135.5q0 99 61 151q57 49 158 49q100 0 154 -66q50 -61 50 -163zM386 377q0 43 -25.5 69t-68.5 26q-44 0 -72 -26t-28 -69t26 -69t69 -26t71 26t28 69z" />
<glyph unicode=":" horiz-adv-x="274" d="M196 63q0 -28 -19 -47t-47 -19q-27 0 -46 19.5t-19 46.5t19 46.5t46 19.5q28 0 47 -19t19 -47zM196 364q0 -28 -19 -47t-47 -19t-46.5 19t-18.5 47q0 27 19 46t46 19q28 0 47 -18.5t19 -46.5z" />
<glyph unicode=";" horiz-adv-x="280" d="M202 63q0 -57 -26 -93q-29 -41 -84 -41v25q47 0 49 43q-31 0 -51 17.5t-20 48.5q0 27 19.5 46.5t46.5 19.5t46.5 -19.5t19.5 -46.5zM202 364q0 -28 -19 -47t-47 -19t-47 19t-19 47q0 27 19.5 46t46.5 19t46.5 -19t19.5 -46z" />
<glyph unicode="&#x3c;" horiz-adv-x="721" d="M621 218h-210l20 -95q1 -5 1 -9q0 -23 -22 -23q-12 0 -23 8l-279 209l279 210q11 8 23 8q22 0 22 -23q0 -4 -1 -9l-20 -96h210v-180z" />
<glyph unicode="=" horiz-adv-x="443" d="M364 344h-279v102h279v-102zM364 165h-279v103l279 -1v-102z" />
<glyph unicode="&#x3e;" horiz-adv-x="724" d="M621 308l-279 -209q-11 -8 -23 -8q-21 0 -21 23q0 4 1 9l19 95h-210v180h210l-19 96q-1 5 -1 9q0 23 21 23q12 0 23 -8z" />
<glyph unicode="?" horiz-adv-x="505" d="M444 432q0 -74 -37 -112l-71 -56q-40 -39 -44 -110h-114q-1 9 -1 17q0 76 36 126q12 17 67 64q36 31 36 65q0 49 -59 49q-33 0 -73 -16.5t-60 -39.5l-61 94q64 76 192 76q81 0 132 -37q57 -41 57 -120zM300 63q0 -27 -19.5 -46.5t-46.5 -19.5t-46.5 19.5t-19.5 46.5 t19.5 46.5t46.5 19.5t46.5 -19.5t19.5 -46.5z" />
<glyph unicode="@" horiz-adv-x="633" d="M574 273q0 -101 -23 -140q-10 -16 -38 -28.5t-49 -12.5q-26 0 -52 13.5t-33 36.5q-33 -19 -86 -19q-89 0 -89 92q0 45 31 70q28 23 74 23q33 0 54 -10q-8 39 -51 39q-30 0 -52 -17l-23 45q23 30 83 30q47 0 77.5 -24t30.5 -69v-111q0 -40 38 -40q42 0 51 43q3 13 3 78 q0 93 -53.5 147.5t-146.5 54.5q-88 0 -146.5 -58.5t-58.5 -146.5q0 -92 55.5 -149.5t147.5 -57.5l-46 -36q-89 0 -153 78q-60 74 -60 165q0 109 77 180q74 70 184 70q111 0 182.5 -68t71.5 -178zM363 202v40q0 9 -39 9q-52 0 -52 -36q0 -31 45 -31q46 0 46 18z" />
<glyph unicode="A" horiz-adv-x="657" d="M608 -3h-140l-39 118h-183l-40 -118h-143l205 574h134zM397 212l-60 181l-60 -181h120z" />
<glyph unicode="B" horiz-adv-x="605" d="M549 175q0 -178 -211 -178h-257v574h248q68 0 117.5 -43t49.5 -110q0 -59 -46 -100q49 -12 75 -53q24 -37 24 -90zM385 409q0 25 -21.5 39t-47.5 14h-104v-105h104q26 0 47.5 14t21.5 38zM425 180q0 35 -23.5 54t-59.5 19l-130 -1v-146h130q35 0 59 20t24 54z" />
<glyph unicode="C" horiz-adv-x="652" d="M600 463l-117 -65q-44 59 -127 59q-149 0 -149 -173q0 -76 36 -122q39 -51 113 -51q75 0 114 43l122 -56q-78 -108 -236 -108q-127 0 -209 83.5t-82 210.5q0 136 77.5 214.5t213.5 78.5q168 0 244 -114z" />
<glyph unicode="D" horiz-adv-x="667" d="M605 288q0 -91 -49 -162q-90 -129 -284 -129h-195v574h201q103 0 180 -40q86 -44 124 -132q23 -53 23 -111zM467 283q0 88 -64 135q-57 42 -148 42h-44v-351h44q92 0 148 40q64 45 64 134z" />
<glyph unicode="E" horiz-adv-x="514" d="M462 -3h-385v574h385v-102h-258v-112h158v-102h-158v-156h258v-102z" />
<glyph unicode="F" horiz-adv-x="520" d="M467 469h-254v-120h163v-102h-163v-250h-127v574h381v-102z" />
<glyph unicode="G" horiz-adv-x="675" d="M622 219q0 -99 -88 -166q-81 -63 -182 -63q-127 0 -209 83.5t-82 210.5q0 137 77.5 219.5t213.5 82.5q162 0 243 -123l-116 -65q-13 31 -51.5 51t-75.5 20q-150 0 -150 -185q0 -78 35 -123q39 -50 115 -50q40 0 75 16q42 19 51 52h-126v105h270v-65z" />
<glyph unicode="H" horiz-adv-x="653" d="M579 -3h-133v236h-231v-236h-132v574h132v-223h231v223h133v-574z" />
<glyph unicode="I" horiz-adv-x="288" d="M209 -3h-122v574h122v-574z" />
<glyph unicode="J" horiz-adv-x="478" d="M404 194q0 -88 -62.5 -144.5t-151.5 -56.5q-18 0 -53 3t-53 3v109q110 0 142 16q54 27 54 121v326h124v-377z" />
<glyph unicode="K" horiz-adv-x="652" d="M598 -3h-163l-135 225l-80 -96v-129h-133v574h133v-279l213 279h154l-203 -247z" />
<glyph unicode="L" horiz-adv-x="541" d="M482 -3h-406v574h128v-459h278v-115z" />
<glyph unicode="M" horiz-adv-x="750" d="M681 -3h-136v349l-161 -349l-169 349v-349h-128v574h162l135 -282l134 282h163v-574z" />
<glyph unicode="N" horiz-adv-x="671" d="M585 -3h-131l-244 394v-394h-130v574h165l210 -327v327h130v-574z" />
<glyph unicode="O" horiz-adv-x="703" d="M639 284q0 -137 -72 -214q-74 -80 -210 -80q-132 0 -208 82q-75 79 -75 212q0 136 74 214.5t209 78.5q134 0 208 -79t74 -214zM498 284q0 177 -141 177t-141 -177t141 -177t141 177z" />
<glyph unicode="P" horiz-adv-x="612" d="M559 393q0 -77 -49 -132.5t-126 -55.5h-166v-208h-131v574h297q76 0 125.5 -50.5t49.5 -127.5zM428 390q0 32 -22.5 51t-55.5 19h-132v-143h132q33 0 55.5 20.5t22.5 52.5z" />
<glyph unicode="Q" horiz-adv-x="702" d="M642 284q0 -139 -77 -217l37 -43l-91 -76l-45 58q-56 -18 -111 -18q-127 0 -202.5 84t-75.5 212q0 136 73.5 214.5t208.5 78.5q134 0 210 -80q73 -78 73 -213zM500 284q0 177 -141 177t-141 -177q0 -178 137 -178q14 0 30 2l-68 84l98 65l65 -82q20 41 20 109z" />
<glyph unicode="R" horiz-adv-x="615" d="M554 393q0 -56 -28 -104t-77 -70l105 -222h-146l-98 208h-96v-208h-131v574h297q76 0 125 -51t49 -127zM424 390q0 32 -23 51t-56 19h-131v-143h131q33 0 56 20.5t23 52.5z" />
<glyph unicode="S" horiz-adv-x="571" d="M520 182q0 -96 -66 -146q-60 -46 -158 -46q-116 0 -216 51l45 103q26 -20 81 -32q47 -11 87 -11q103 0 103 73q0 51 -82 77l-109 34l-42 14q-81 42 -81 129q0 77 82 118q66 33 151 33q108 0 179 -48l-36 -104q-24 21 -79 33q-45 10 -87 10q-75 0 -75 -49q0 -33 79 -57 q115 -35 145 -52q79 -45 79 -130z" />
<glyph unicode="T" horiz-adv-x="620" d="M561 456h-177v-459h-132v459h-178v115h487v-115z" />
<glyph unicode="U" horiz-adv-x="649" d="M568 226q0 -113 -68 -173q-64 -58 -179 -58q-113 0 -179 59t-66 171v346h133v-329q0 -125 112 -125q113 0 113 125v329h134v-345z" />
<glyph unicode="V" horiz-adv-x="655" d="M618 571l-206 -574h-156l-205 574h144l141 -381l141 381h141z" />
<glyph unicode="W" horiz-adv-x="925" d="M868 571l-157 -574h-160l-89 350l-87 -350h-160l-157 574h138l100 -389l108 389h123l108 -389l100 389h133z" />
<glyph unicode="X" horiz-adv-x="673" d="M618 -3h-155l-127 199l-130 -199h-147l199 289l-195 285h155l123 -188l126 188h148l-196 -279z" />
<glyph unicode="Y" horiz-adv-x="658" d="M614 571l-206 -352v-222h-134v215l-210 359h152l128 -235l124 235h146z" />
<glyph unicode="Z" horiz-adv-x="596" d="M534 -3h-461v103l274 345h-260v126h431v-105l-273 -343h289v-126z" />
<glyph unicode="[" horiz-adv-x="363" d="M296 -139h-210v733h210v-81h-122v-571h122v-81z" />
<glyph unicode="\" horiz-adv-x="490" d="M438 -116h-97l-289 710h99z" />
<glyph unicode="]" horiz-adv-x="382" d="M296 -139h-210v81h122v571h-122v81h210v-733z" />
<glyph unicode="^" horiz-adv-x="571" d="M502 344q0 -22 -24 -22q-4 0 -9 1l-95 20v-210h-180v210l-96 -20q-5 -1 -9 -1q-23 0 -23 22q0 12 8 23l210 279l209 -279q9 -12 9 -23z" />
<glyph unicode="_" horiz-adv-x="739" d="M646 -125h-562v129h562v-129z" />
<glyph unicode="`" horiz-adv-x="469" d="M345 470h-56l-106 192h91z" />
<glyph unicode="a" horiz-adv-x="545" d="M475 -1h-118v28q-61 -31 -126 -31q-74 0 -116.5 39.5t-42.5 113.5q0 81 55 123q50 38 133 38q54 0 97 -23q-2 79 -92 79q-62 0 -93 -31l-42 75q49 51 150 51q82 0 135 -38q60 -42 60 -121v-303zM356 131v54q0 14 -28 23q-22 7 -41 7q-94 0 -94 -63q0 -52 82 -52 q15 0 46 10q35 11 35 21z" />
<glyph unicode="b" horiz-adv-x="564" d="M502 206q0 -94 -54.5 -151.5t-148.5 -57.5q-76 0 -103 41v-40h-121v546l121 43v-171q55 33 110 33q99 0 151 -75q45 -65 45 -168zM389 210q0 128 -107 128q-57 0 -86 -62v-103q35 -70 86 -70q50 0 78.5 28.5t28.5 78.5z" />
<glyph unicode="c" horiz-adv-x="521" d="M469 62q-63 -73 -173 -73q-105 0 -165.5 62.5t-60.5 168.5q0 100 63.5 165.5t162.5 65.5q94 0 158 -61l-91 -69q-25 24 -67 24q-51 0 -78 -39q-24 -34 -24 -87q0 -125 103 -125q46 0 72 28z" />
<glyph unicode="d" horiz-adv-x="569" d="M498 -2h-120v40q-28 -41 -106 -41q-92 0 -150.5 58.5t-58.5 150.5q0 95 55 165q59 76 152 76q55 0 108 -31v128l120 43v-589zM378 169v103q-30 62 -86 62q-107 0 -107 -128q0 -50 28.5 -78.5t78.5 -28.5q48 0 86 70z" />
<glyph unicode="e" horiz-adv-x="552" d="M501 165h-314q-1 -24 24 -44.5t51 -24.5q13 -2 28 -2q53 0 77 34l86 -64q-58 -75 -163 -75q-103 0 -164.5 62.5t-61.5 165.5q0 111 59.5 175t169.5 64q106 0 165 -91q43 -67 43 -200zM381 260q0 40 -27.5 67.5t-67.5 27.5t-70 -27.5t-30 -67.5h195z" />
<glyph unicode="f" horiz-adv-x="421" d="M338 353h-96v-356h-113v356h-55v85h55q0 158 151 158q27 0 58 -5v-93q-52 0 -67 -6q-30 -12 -33 -54h100v-85z" />
<glyph unicode="g" horiz-adv-x="563" d="M497 92q0 -114 -51 -190q-59 -89 -167 -89l-16 108q109 14 109 106q-25 -18 -46 -24q-16 -4 -51 -4q-101 0 -149 53q-55 61 -55 179q0 91 58.5 151t148.5 60q54 0 98 -24v24h121v-350zM376 166v105q0 23 -23 42.5t-47 19.5q-50 0 -80 -28t-30 -77q0 -121 91 -121 q27 0 56 16q33 18 33 43z" />
<glyph unicode="h" horiz-adv-x="554" d="M490 -3h-121v265q0 29 -25.5 50.5t-55.5 21.5q-29 0 -57.5 -22t-28.5 -50v-265h-120v535l120 62v-198q28 40 118 40q74 0 122 -43t48 -116v-280z" />
<glyph unicode="i" horiz-adv-x="269" d="M204 533q0 -27 -19.5 -46t-46.5 -19t-46.5 19t-19.5 46q0 28 19 47t47 19t47 -19t19 -47zM197 -3h-120v445h120v-445z" />
<glyph unicode="j" horiz-adv-x="337" d="M233 533q0 -27 -19.5 -46t-46.5 -19t-46.5 19t-19.5 46q0 28 19 47t47 19t47 -19t19 -47zM225 -2q0 -67 -47 -121q-49 -57 -115 -57l-47 93q44 0 69 46q21 38 21 86v397h119v-444z" />
<glyph unicode="k" horiz-adv-x="545" d="M500 -3h-140l-122 197l-45 -44v-153h-120v538l120 59v-294l127 125h168l-155 -155z" />
<glyph unicode="l" horiz-adv-x="296" d="M212 -3h-121v535l121 62v-597z" />
<glyph unicode="m" horiz-adv-x="842" d="M773 -3h-121v252q0 38 -20 62t-57 24q-63 0 -84 -54q-5 -13 -5 -20v-264h-121v252q0 38 -20 62t-57 24t-63.5 -24.5t-26.5 -61.5v-252h-119v445h119v-38q49 45 125 45q70 0 116 -42q63 39 145 39q80 0 131 -38q58 -43 58 -120v-291z" />
<glyph unicode="n" horiz-adv-x="554" d="M492 -3h-121v252q0 37 -20.5 61.5t-56.5 24.5q-37 0 -63.5 -24.5t-26.5 -61.5v-252h-120v445h120v-38q49 45 125 45q73 0 118 -44t45 -117v-291z" />
<glyph unicode="o" horiz-adv-x="558" d="M509 220q0 -104 -61 -167.5t-165 -63.5q-105 0 -165 62.5t-60 168.5q0 100 63 165.5t162 65.5q100 0 163 -65.5t63 -165.5zM382 219q0 125 -99 125q-50 0 -76 -39q-23 -34 -23 -86q0 -123 100 -123q98 0 98 123z" />
<glyph unicode="p" horiz-adv-x="564" d="M502 234q0 -98 -48 -163q-53 -73 -148 -73q-54 0 -109 26v-149l-121 -65v641h121v-40q26 39 97 39q93 0 150.5 -61t57.5 -155zM389 230q0 107 -107 107q-24 0 -53 -21q-32 -22 -32 -44v-105q0 -18 28 -36t47 -18q117 0 117 117z" />
<glyph unicode="q" horiz-adv-x="581" d="M502 -135l-121 -57v216q-55 -26 -108 -26q-94 0 -148 73q-49 66 -49 163q0 92 55.5 151t146.5 59q76 0 103 -41v39h121v-577zM381 167v105q0 23 -30.5 44t-54.5 21q-107 0 -107 -107q0 -55 31 -86t86 -31q23 0 47 16q28 17 28 38z" />
<glyph unicode="r" horiz-adv-x="392" d="M354 436l-41 -118q-25 15 -44 15q-32 0 -53.5 -21.5t-21.5 -53.5v-261h-111v446h111v-34q39 44 97 44q38 0 63 -17z" />
<glyph unicode="s" horiz-adv-x="481" d="M434 137q0 -146 -208 -146q-61 0 -166 42l42 95q57 -34 136 -34q70 0 70 40q0 19 -64 35q-84 21 -118 40q-64 36 -64 107q0 74 67 112q55 32 135 32q92 0 151 -39l-37 -104q-69 39 -135 39q-49 0 -49 -35q0 -21 62 -36q85 -21 116 -39q62 -37 62 -109z" />
<glyph unicode="t" horiz-adv-x="392" d="M343 99l-22 -99q-47 -10 -83 -10q-128 0 -128 142v212h-53v100h53v73l112 56v-129h103v-100h-103v-162q0 -97 60 -97q25 0 61 14z" />
<glyph unicode="u" d="M479 -1h-120v38q-48 -45 -124 -45q-73 0 -118 43.5t-45 116.5v292h120l1 -252q0 -86 76 -86q37 0 63.5 24.5t26.5 61.5v252h120v-445z" />
<glyph unicode="v" horiz-adv-x="536" d="M492 444l-159 -447h-126l-154 447h120l99 -273l98 273h122z" />
<glyph unicode="w" horiz-adv-x="828" d="M790 444l-159 -447h-126l-84 243l-87 -243h-126l-154 447h121l99 -272l98 272h101l-1 -2l98 -270l98 272h122z" />
<glyph unicode="x" horiz-adv-x="565" d="M498 -3h-133l-91 140l-92 -140h-141l155 226l-147 221h140l85 -137l84 137h140l-147 -221z" />
<glyph unicode="y" horiz-adv-x="589" d="M546 444l-257 -627h-124l72 184l-179 443h124l121 -295l126 295h117z" />
<glyph unicode="z" horiz-adv-x="570" d="M476 -3h-376v87l196 251h-187v109h363v-86l-192 -250h196v-111z" />
<glyph unicode="{" horiz-adv-x="516" d="M455 -139h-95q-152 0 -152 158v19q1 26 1 19q0 62 -23 89q-33 38 -128 40v83q95 2 128 40q23 27 23 89q0 -7 -1 19v20q0 157 152 157h95v-75q-100 0 -122 -28q-16 -20 -16 -70v-6v-8q0 -56 -13 -83q-23 -53 -100 -89v-15q77 -36 100 -89q13 -27 13 -83v-8v-6 q0 -50 16 -70q22 -28 122 -28v-75z" />
<glyph unicode="|" horiz-adv-x="221" d="M135 -139h-48v733h48v-733z" />
<glyph unicode="}" horiz-adv-x="520" d="M457 186q-94 0 -127 -38q-24 -27 -24 -88q0 6 1 -21v-20q0 -158 -153 -158h-96v75q101 0 123 28q16 20 16 70v6v8q0 56 13 83q23 53 101 89v15q-78 36 -101 89q-13 27 -13 83v8v6q0 50 -16 70q-22 28 -123 28v75h96q153 0 153 -158v-19q-1 -26 -1 -19q0 -62 23 -89 q33 -38 128 -40v-83z" />
<glyph unicode="~" horiz-adv-x="728" d="M645 333q-3 -68 -56 -123.5t-120 -55.5q-38 0 -115.5 52.5t-101.5 52.5q-40 0 -53 -41q-1 -2 -16 -73l-108 36q15 88 48 131q43 55 124 55q52 0 132 -46.5t85 -46.5q62 0 81 94z" />
<glyph unicode="&#xa1;" horiz-adv-x="287" d="M206 507q0 -28 -19 -47t-47 -19q-27 0 -46 19.5t-19 46.5t19 46.5t46 19.5q28 0 47 -19t19 -47zM191 -1h-101v246q1 9 4 53l7 106h79l7 -106q2 -33 4 -53v-246z" />
<glyph unicode="&#xa2;" d="M461 424l-107 -22v212h-160v-212q-108 22 -115 22q-13 0 -13 -11q0 -9 6 -17l202 -268l201 268q7 9 7 17q0 15 -21 11z" />
<glyph unicode="&#xa3;" d="M225 477l-150 -150l113 -113l150 150l61 -92q7 -10 13 -10q13 0 16 20l47 332l-332 -47q-20 -3 -20 -16q0 -6 10 -13z" />
<glyph unicode="&#xa4;" d="M330 477l150 -150l-113 -113l-150 150l-61 -92q-7 -10 -13 -10q-13 0 -16 20l-47 332l332 -47q20 -3 20 -16q0 -6 -10 -13z" />
<glyph unicode="&#xa5;" d="M225 332l-150 150l113 113l150 -150l61 92q7 10 13 10q13 0 16 -20l47 -332l-332 47q-20 3 -20 16q0 6 10 13z" />
<glyph unicode="&#xa6;" d="M330 309l150 150l-113 113l-150 -150l-61 91q-7 11 -14 11q-12 0 -15 -20l-47 -333l332 48q20 3 20 16q0 6 -10 13z" />
<glyph unicode="&#xa7;" d="M468 332q-2 0 -7 1l-107 22v-212h-160v212l-108 -22q-5 -1 -7 -1q-13 0 -13 12q0 9 6 17l202 268l201 -268q7 -9 7 -17q0 -12 -14 -12z" />
<glyph unicode="&#xa8;" horiz-adv-x="603" d="M471 547q0 -27 -19.5 -46.5t-46.5 -19.5t-46.5 19.5t-19.5 46.5t19.5 46.5t46.5 19.5t46.5 -19.5t19.5 -46.5zM277 547q0 -27 -19 -46.5t-46 -19.5q-28 0 -47 19t-19 47t19 47t47 19q27 0 46 -19.5t19 -46.5z" />
<glyph unicode="&#xa9;" horiz-adv-x="701" d="M389 228l22 -107q1 -5 1 -7q0 -13 -12 -13q-9 0 -17 6l-268 201l268 202q8 6 17 6q12 0 12 -13q0 -2 -1 -7l-22 -108h212v-160h-212z" />
<glyph unicode="&#xaa;" horiz-adv-x="704" d="M309 101q-15 0 -11 20l22 107h-212v160h212q-22 108 -22 115q0 13 11 13q9 0 17 -6l268 -202l-268 -201q-8 -6 -17 -6z" />
<glyph unicode="&#xad;" horiz-adv-x="372" d="M287 255h-193v102h193v-102z" />
<glyph unicode="&#xaf;" horiz-adv-x="438" d="M354 465h-267v129h267v-129z" />
<glyph unicode="&#x2c9;" horiz-adv-x="438" d="M354 465h-267v129h267v-129z" />
<glyph unicode="&#xb0;" horiz-adv-x="447" d="M365 408q0 -69 -36 -118q-40 -55 -106 -55t-106 55q-37 50 -37 118t37 118q41 56 106 56q66 0 106 -56q36 -50 36 -118zM301 408q0 37 -21 64.5t-57 27.5t-57 -27.5t-21 -64.5t21 -64t57 -27q35 0 57 29q21 26 21 62z" />
<glyph unicode="&#xb2;" horiz-adv-x="549" d="M487 -3h-417v54q0 69 42 130.5t101 96.5q37 21 125 75q29 26 29 61q0 27 -29 41q-23 11 -54 11q-57 0 -141 -65l-73 92q94 82 226 82q87 0 136.5 -44t49.5 -130q0 -79 -73 -127q-18 -12 -132 -81q-55 -42 -55 -82h265v-114z" />
<glyph unicode="&#xb3;" horiz-adv-x="544" d="M473 175q0 -90 -65 -138q-57 -43 -150 -43q-141 0 -193 93l104 59q21 -51 90 -51q95 0 95 82q0 60 -46 77q-22 8 -97 8v107q61 0 73 3q38 10 38 54q0 57 -63 57q-54 0 -62 -43l-101 34q17 49 62 77.5t99 28.5q72 0 120 -38q53 -41 53 -111q0 -59 -55 -103q43 -7 72 -59 q26 -46 26 -94z" />
<glyph unicode="&#xb9;" horiz-adv-x="322" d="M250 -3h-121v428h-60v97q76 0 76 50h105v-575z" />
<glyph unicode="&#xba;" horiz-adv-x="558" d="M509 220q0 -104 -61 -167.5t-165 -63.5q-105 0 -165 62.5t-60 168.5q0 100 63 165.5t162 65.5q100 0 163 -65.5t63 -165.5zM382 219q0 125 -99 125q-50 0 -76 -39q-23 -34 -23 -86q0 -123 100 -123q98 0 98 123z" />
<glyph unicode="&#xbf;" horiz-adv-x="508" d="M339 527q0 -27 -19.5 -46.5t-46.5 -19.5t-46 19.5t-19 46.5t19 46.5t46 19.5t46.5 -19.5t19.5 -46.5zM444 77q-29 -37 -87 -58q-52 -19 -105 -19q-80 0 -131 38q-57 42 -57 119q0 74 37 113q24 18 70 57q40 36 45 109h114v-18q0 -77 -36 -126q-11 -15 -67 -63 q-36 -31 -36 -66q0 -49 59 -49q34 0 73.5 16t59.5 40z" />
<glyph unicode="&#xc0;" horiz-adv-x="653" d="M601 -3h-139l-39 118h-184l-39 -118h-144l206 574h134zM391 212l-60 181l-60 -181h120zM364 600h-55l-107 192h91z" />
<glyph unicode="&#xc1;" horiz-adv-x="659" d="M601 -3h-139l-39 118h-184l-39 -118h-144l206 574h134zM391 212l-60 181l-60 -181h120zM251 602h55l107 192h-91z" />
<glyph unicode="&#xc2;" horiz-adv-x="663" d="M603 -3h-139l-40 118h-183l-39 -118h-144l206 574h134zM393 212l-60 181l-60 -181h120zM481 596h-73l-70 127l-69 -127h-71l102 193h78z" />
<glyph unicode="&#xc3;" horiz-adv-x="664" d="M601 -3h-140l-39 118h-183l-40 -118h-143l205 574h134zM390 212l-60 181l-60 -181h120zM477 691q-7 -27 -20 -37q-6 -3 -39 -16q-19 -7 -35 -7q-18 0 -54.5 12.5t-50.5 12.5q-27 0 -59 -39l-51 32q34 68 95 68q19 0 56.5 -12.5t56.5 -12.5q44 0 51 38z" />
<glyph unicode="&#xc4;" horiz-adv-x="671" d="M588 -3h-139l-39 118h-184l-39 -118h-144l206 574h134zM378 212l-60 181l-60 -181h120zM481 677q0 -28 -19 -47t-47 -19t-47 19t-19 47q0 27 19.5 46t46.5 19t46.5 -19t19.5 -46zM287 677q0 -28 -18.5 -47t-46.5 -19t-47 19t-19 47t19 46.5t47 18.5q27 0 46 -19t19 -46z " />
<glyph unicode="&#xc5;" horiz-adv-x="709" d="M634 -3h-157l-31 115h-206l-31 -115h-153l201 538q-37 42 -37 79q0 51 38 82q34 28 87 28t89.5 -29t36.5 -81q0 -37 -38 -79zM404 617q0 26 -16.5 43t-42.5 17t-42.5 -17t-16.5 -43q0 -27 16 -44t43 -17t43 17t16 44zM414 206l-71 194l-70 -194h141z" />
<glyph unicode="&#xc6;" horiz-adv-x="930" d="M867 -3h-416v159h-188l-64 -159h-155l239 574h584v-120h-277v-94h257v-120h-257v-120h277v-120zM451 274v183h-58l-80 -183h138z" />
<glyph unicode="&#xc7;" horiz-adv-x="646" d="M591 463l-117 -65q-44 59 -127 59q-76 0 -115 -50q-35 -45 -35 -123q0 -75 37 -122q40 -51 113 -51q74 0 114 43l122 -56q-60 -83 -168 -102q0 -150 -146 -150q-39 0 -83 11l44 66q22 -5 42 -5q72 0 71 73q-126 1 -206.5 84t-80.5 209q0 137 77 215t214 78 q168 0 244 -114z" />
<glyph unicode="&#xc8;" horiz-adv-x="518" d="M452 -3h-386v574h386v-102h-259v-112h159v-102h-159v-156h259v-102zM337 600h-55l-107 192h91z" />
<glyph unicode="&#xc9;" horiz-adv-x="529" d="M461 -3h-386v574h386v-102h-259v-112h158v-102h-158v-156h259v-102zM200 602h56l107 192h-92z" />
<glyph unicode="&#xca;" horiz-adv-x="524" d="M455 -3h-386v574h386v-102h-259v-112h158v-102h-158v-156h259v-102zM394 600h-72l-70 127l-70 -127h-71l103 192h77z" />
<glyph unicode="&#xcb;" horiz-adv-x="526" d="M456 -3h-386v574h386v-102h-259v-112h158v-102h-158v-156h259v-102zM431 677q0 -28 -19 -47t-47 -19t-46.5 19t-18.5 47q0 27 19 46t46 19q28 0 47 -18.5t19 -46.5zM237 677q0 -28 -18.5 -47t-46.5 -19t-47 19t-19 47q0 27 19.5 46t46.5 19t46 -19t19 -46z" />
<glyph unicode="&#xcc;" horiz-adv-x="301" d="M222 600h-56l-106 192h91zM207 -3h-121v574h121v-574z" />
<glyph unicode="&#xcd;" horiz-adv-x="288" d="M204 -3h-121v574h121v-574zM70 602h56l107 192h-92z" />
<glyph unicode="&#xce;" horiz-adv-x="361" d="M242 -3h-121v574h121v-574zM330 600h-73l-70 127l-70 -127h-70l102 192h78z" />
<glyph unicode="&#xcf;" horiz-adv-x="351" d="M232 -3h-122v574h122v-574zM335 677q0 -28 -19 -47t-47 -19t-47 19t-19 47q0 27 19.5 46t46.5 19t46.5 -19t19.5 -46zM141 677q0 -28 -19 -47t-47 -19t-46.5 19t-18.5 47q0 27 19 46t46 19q28 0 47 -18.5t19 -46.5z" />
<glyph unicode="&#xd0;" horiz-adv-x="717" d="M654 283q0 -144 -99 -219q-88 -67 -237 -67h-198v231h-63v116h63v227h203q150 0 236 -68q95 -74 95 -220zM513 285q0 102 -59 136q-43 25 -153 25h-45v-102h124v-116h-124v-106h45q212 0 212 163z" />
<glyph unicode="&#xd1;" horiz-adv-x="671" d="M581 -3h-131l-244 394v-394h-130v574h165l210 -327v327h130v-574zM487 691q-8 -28 -20 -37q-3 -3 -39 -16q-19 -7 -35 -7q-19 0 -55 12.5t-51 12.5q-27 0 -58 -39l-51 32q34 68 95 68q19 0 56 -12.5t57 -12.5q43 0 51 38z" />
<glyph unicode="&#xd2;" horiz-adv-x="679" d="M628 284q0 -136 -73 -213q-75 -80 -210 -80q-133 0 -208 81q-74 78 -74 212q0 135 74 214t208 79t208.5 -79t74.5 -214zM486 284q0 177 -141 177t-141 -177t141 -177t141 177zM395 600h-56l-107 192h92z" />
<glyph unicode="&#xd3;" horiz-adv-x="686" d="M625 284q0 -136 -74 -214.5t-209 -78.5q-132 0 -207 80t-75 213q0 135 74 214t208 79t210 -80q73 -78 73 -213zM483 284q0 177 -140 177q-142 0 -142 -177t142 -177q140 0 140 177zM281 602h56l107 192h-92z" />
<glyph unicode="&#xd4;" horiz-adv-x="689" d="M629 284q0 -135 -74 -214t-208 -79q-133 0 -208 79.5t-75 213.5q0 136 74 214.5t209 78.5t208.5 -78.5t73.5 -214.5zM488 284q0 177 -141 177t-141 -177t141 -177t141 177zM488 600h-72l-70 127l-70 -127h-71l103 192h78z" />
<glyph unicode="&#xd5;" horiz-adv-x="692" d="M631 284q0 -136 -74 -214.5t-209 -78.5q-132 0 -207 80t-75 213q0 135 74 214t208 79t210 -80q73 -78 73 -213zM489 284q0 177 -140 177q-141 0 -141 -177t141 -177q140 0 140 177zM506 691q-8 -28 -20 -37q-6 -3 -39 -16q-19 -7 -35 -7q-19 0 -55 12.5t-51 12.5 q-27 0 -59 -39l-50 32q33 68 95 68q19 0 56 -12.5t57 -12.5q43 0 51 38z" />
<glyph unicode="&#xd6;" horiz-adv-x="694" d="M632 284q0 -136 -74 -214.5t-209 -78.5q-132 0 -207 80t-75 213q0 135 74 214t208 79t210 -80q73 -78 73 -213zM490 284q0 177 -140 177q-141 0 -141 -177t141 -177q140 0 140 177zM505 677q0 -28 -19 -47t-47 -19t-46.5 19t-18.5 47q0 27 19 46t46 19q28 0 47 -18.5 t19 -46.5zM312 677q0 -28 -19 -47t-47 -19t-47 19t-19 47q0 27 19.5 46t46.5 19t46.5 -19t19.5 -46z" />
<glyph unicode="&#xd7;" horiz-adv-x="599" d="M526 80l-62 -66l-165 176l-164 -176l-62 66l165 175l-165 176l62 65l164 -175l165 175l62 -65l-165 -176z" />
<glyph unicode="&#xd8;" horiz-adv-x="708" d="M643 284q0 -136 -74 -215t-209 -79q-40 0 -76 8l-4 -8h-97l20 41q-125 75 -125 253q0 136 73.5 214.5t208.5 78.5q59 0 108 -16l16 33h99l-38 -75q98 -78 98 -235zM501 284q0 67 -19 108l-143 -284q10 -1 21 -1q141 0 141 177zM414 453q-24 8 -54 8q-141 0 -141 -177 q0 -96 40 -140z" />
<glyph unicode="&#xd9;" horiz-adv-x="651" d="M564 226q0 -113 -66 -172t-180 -59t-178 57q-68 60 -68 173v346h134v-329q0 -125 112 -125q113 0 113 125v329h133v-345zM382 600h-56l-107 192h91z" />
<glyph unicode="&#xda;" horiz-adv-x="698" d="M588 226q0 -113 -66 -172t-180 -59t-178 57q-68 60 -68 173v346h133v-329q0 -125 113 -125t113 125v329h133v-345zM280 602h55l107 192h-91z" />
<glyph unicode="&#xdb;" horiz-adv-x="654" d="M468 600h-73l-70 127l-69 -127h-71l102 192h78zM566 226q0 -113 -66 -172t-180 -59t-178 57q-68 60 -68 173v346h133v-329q0 -125 113 -125t113 125v329h133v-345z" />
<glyph unicode="&#xdc;" horiz-adv-x="638" d="M568 226q0 -113 -66 -172t-180 -59t-178 57q-67 60 -67 173v346h133v-329q0 -125 112 -125q113 0 113 125v329h133v-345zM485 677q0 -28 -19 -47t-47 -19t-47 19t-19 47q0 27 19.5 46t46.5 19t46.5 -19t19.5 -46zM291 677q0 -28 -19 -47t-47 -19t-47 19t-19 47 q0 27 19.5 46t46.5 19t46.5 -19t19.5 -46z" />
<glyph unicode="&#xdd;" horiz-adv-x="701" d="M622 571l-206 -352v-222h-134v215l-210 359h152l128 -235l124 235h146zM267 602h56l107 192h-92z" />
<glyph unicode="&#xde;" horiz-adv-x="564" d="M518 303q0 -97 -67 -152q-62 -51 -161 -51h-92v-103h-131v574h131v-88h96q224 0 224 -180zM382 300q0 46 -57 60q-28 7 -94 7h-33v-151h43q71 0 95 9q46 17 46 75z" />
<glyph unicode="&#xdf;" horiz-adv-x="602" d="M540 176q0 -57 -43 -104q-39 -43 -96 -62q-45 -15 -117 -15q-14 0 -27 1v97h58q41 0 69 25t28 65q0 73 -138 87v92q45 10 61 20q28 17 28 55q0 51 -82 51q-83 0 -83 -72v-418h-121v406q0 94 57 145q54 49 149 49q133 0 189 -86q22 -34 22 -68q0 -83 -102 -119 q148 -40 148 -149z" />
<glyph unicode="&#xe0;" horiz-adv-x="544" d="M474 -1h-118v28q-61 -31 -126 -31q-74 0 -116.5 39.5t-42.5 113.5q0 81 55 123q50 38 133 38q54 0 97 -23q-2 79 -92 79q-62 0 -93 -31l-42 75q51 51 150 51q82 0 135 -38q60 -42 60 -121v-303zM355 131v54q0 14 -28 23q-22 7 -41 7q-94 0 -94 -63q0 -52 82 -52 q15 0 46 10q35 11 35 21zM338 470h-56l-107 192h91z" />
<glyph unicode="&#xe1;" horiz-adv-x="539" d="M469 -1h-118v28q-61 -31 -126 -31q-74 0 -116.5 40t-42.5 113q0 81 55 123q50 38 133 38q54 0 97 -23q-2 79 -92 79q-62 0 -93 -31l-42 75q51 51 150 51q83 0 135 -37q60 -42 60 -122v-303zM350 131v54q0 14 -28 23q-22 7 -41 7q-94 0 -94 -63q0 -52 82 -52q15 0 46 10 q35 11 35 21zM238 470h56l106 192h-91z" />
<glyph unicode="&#xe2;" horiz-adv-x="560" d="M445 470h-73l-70 127l-69 -127h-71l102 192h78zM482 -1h-118v28q-61 -31 -126 -31q-74 0 -116.5 40t-42.5 113q0 81 55 123q50 38 133 38q54 0 97 -23q-1 79 -92 79q-62 0 -93 -31l-42 75q51 51 151 51q83 0 135 -37q59 -42 59 -122v-303zM363 131v54q0 14 -28 23 q-22 7 -41 7q-94 0 -94 -63q0 -52 82 -52q15 0 46 10q35 11 35 21z" />
<glyph unicode="&#xe3;" horiz-adv-x="578" d="M487 -1h-119v28q-61 -31 -126 -31q-74 0 -116.5 40t-42.5 113q0 81 55 123q50 38 133 38q55 0 97 -23q-1 79 -91 79q-62 0 -93 -31l-42 75q51 51 150 51q82 0 135 -38q60 -42 60 -121v-303zM367 131v54q0 14 -28 23q-22 7 -41 7q-94 0 -94 -63q0 -52 82 -52q15 0 46 10 q35 11 35 21zM460 562q-6 -26 -20 -37q-7 -5 -39 -17q-19 -7 -35 -7q-18 0 -54.5 12.5t-50.5 12.5q-27 0 -59 -39l-51 33q34 67 95 67q19 0 56.5 -12.5t56.5 -12.5q44 0 51 38z" />
<glyph unicode="&#xe4;" horiz-adv-x="564" d="M481 -1h-119v28q-61 -31 -126 -31q-74 0 -116.5 40t-42.5 113q0 81 55 123q50 38 133 38q55 0 97 -23q-1 79 -91 79q-62 0 -93 -31l-43 75q53 51 151 51q82 0 135 -38q60 -42 60 -121v-303zM361 131v54q0 14 -28 23q-22 7 -41 7q-94 0 -94 -63q0 -52 82 -52q15 0 46 10 q35 11 35 21zM443 547q0 -27 -19.5 -46.5t-46.5 -19.5t-46.5 19.5t-19.5 46.5t19.5 46t46.5 19t46.5 -19t19.5 -46zM249 547q0 -27 -19 -46.5t-46 -19.5q-28 0 -47 19t-19 47t19 46.5t47 18.5q27 0 46 -19t19 -46z" />
<glyph unicode="&#xe5;" horiz-adv-x="558" d="M474 -1h-118v28q-61 -31 -126 -31q-74 0 -117 41t-43 115q0 81 56 123q49 37 133 37q59 0 97 -17q-15 68 -92 68q-54 0 -93 -30l-42 86q24 29 79 41q-36 34 -36 81q0 48 32 79.5t80 31.5q47 0 79 -32t32 -79q0 -64 -35 -88q114 -39 114 -151v-303zM342 541q0 26 -16 44 t-42 18t-42.5 -18t-16.5 -44q0 -27 16 -44.5t43 -17.5q26 0 42 18t16 44zM356 131v68q0 16 -70 16q-94 0 -94 -63q0 -52 82 -52q24 0 48 6q34 9 34 25z" />
<glyph unicode="&#xe6;" horiz-adv-x="877" d="M791 165h-314q-1 -25 25 -46q22 -18 50 -23q11 -2 28 -2q62 0 82 28l86 -64q-53 -69 -175 -69q-49 0 -86 18q-27 13 -71 51q-18 -16 -50 -40q-3 -2 -17 -8q-51 -21 -104 -21q-78 0 -126 43t-48 120q0 80 56 122q50 38 133 38q60 0 97 -17q-14 68 -91 68q-55 0 -93 -30 l-42 86q39 48 142 48q104 0 161 -57q58 46 149 46q107 0 165 -91q43 -67 43 -200zM671 260q0 40 -27.5 67.5t-67.5 27.5t-70 -27.5t-30 -67.5h195zM357 172q0 5 -1.5 15.5t-1.5 15.5q-18 12 -67 12q-94 0 -94 -63q0 -52 82 -52q22 0 48 7q34 9 34 24v41z" />
<glyph unicode="&#xe7;" horiz-adv-x="517" d="M461 62q-44 -52 -116 -67v-17q0 -126 -144 -126q-27 0 -55 5l27 67q12 -4 26 -4q33 0 55 18.5t22 50.5q-100 5 -156.5 67.5t-56.5 163.5q0 100 63 165.5t163 65.5q94 0 158 -61l-92 -69q-24 23 -66 23q-51 0 -77 -39q-22 -33 -22 -86q0 -123 100 -123q48 0 71 26z" />
<glyph unicode="&#xe8;" horiz-adv-x="591" d="M521 165h-314q-1 -24 24 -44.5t51 -24.5q13 -2 28 -2q53 0 77 34l86 -64q-58 -75 -163 -75q-103 0 -164.5 62.5t-61.5 165.5q0 111 59.5 175t169.5 64q106 0 165 -91q43 -67 43 -200zM401 260q0 40 -27.5 67.5t-67.5 27.5t-70 -27.5t-30 -67.5h195zM352 470h-56l-106 192 h91z" />
<glyph unicode="&#xe9;" horiz-adv-x="585" d="M514 165h-314q0 -25 26 -46q23 -19 49 -23q13 -2 29 -2q53 0 76 34l87 -64q-60 -75 -164 -75q-103 0 -164.5 62.5t-61.5 165.5q0 111 59.5 175t169.5 64q107 0 166 -91q42 -65 42 -194v-6zM394 260q0 40 -27.5 67.5t-67.5 27.5t-70 -27.5t-30 -67.5h195zM217 470h56 l107 192h-92z" />
<glyph unicode="&#xea;" horiz-adv-x="583" d="M507 165h-314q-1 -24 24 -44.5t51 -24.5q13 -2 28 -2q53 0 77 34l86 -64q-58 -75 -163 -75q-103 0 -164.5 62.5t-61.5 165.5q0 111 59.5 175t169.5 64q106 0 165 -91q43 -67 43 -200zM387 260q0 40 -27.5 67.5t-67.5 27.5t-70 -27.5t-30 -67.5h195zM428 470h-73l-70 127 l-70 -127h-70l102 192h78z" />
<glyph unicode="&#xeb;" horiz-adv-x="584" d="M500 165h-314q-1 -24 24 -44.5t51 -24.5q13 -2 28 -2q53 0 77 34l86 -64q-58 -75 -163 -75q-103 0 -164.5 62.5t-61.5 165.5q0 111 59.5 175t169.5 64q106 0 165 -91q43 -67 43 -200zM380 260q0 40 -27.5 67.5t-67.5 27.5t-70 -27.5t-30 -67.5h195zM452 547 q0 -28 -19 -47t-47 -19q-27 0 -46 19.5t-19 46.5t19 46t46 19q28 0 47 -18.5t19 -46.5zM259 547q0 -27 -19.5 -46.5t-46.5 -19.5t-46.5 19.5t-19.5 46.5t19.5 46t46.5 19t46.5 -19t19.5 -46z" />
<glyph unicode="&#xec;" horiz-adv-x="285" d="M206 470h-56l-106 192h91zM198 -3h-121v427h121v-427z" />
<glyph unicode="&#xed;" horiz-adv-x="285" d="M196 -3h-121v427h121v-427zM86 470h56l106 192h-91z" />
<glyph unicode="&#xee;" horiz-adv-x="276" d="M257 494h-60l-50 97l-48 -97h-59l73 142h71zM199 -3h-101v425h101v-425z" />
<glyph unicode="&#xef;" horiz-adv-x="265" d="M317 547q0 -27 -19.5 -46.5t-46.5 -19.5t-46.5 19.5t-19.5 46.5t19.5 46t46.5 19t46.5 -19t19.5 -46zM123 547q0 -28 -19 -47t-47 -19q-27 0 -46 19.5t-19 46.5t19 46t46 19q28 0 47 -18.5t19 -46.5zM207 -3h-107v428h107v-428z" />
<glyph unicode="&#xf0;" horiz-adv-x="622" d="M525 250q0 -118 -51 -187q-58 -78 -172 -78q-101 0 -160 54.5t-59 154.5q0 89 55.5 142t145.5 53q34 0 108 -29q-38 75 -78 117l-124 -51l-24 58l98 39q-27 21 -99 70h154q17 -10 44 -30l84 35l24 -58l-56 -24q110 -134 110 -266zM400 207q0 20 -3 43q-48 35 -103 35 q-84 0 -84 -88q0 -125 96 -125q94 0 94 135z" />
<glyph unicode="&#xf1;" horiz-adv-x="573" d="M485 -3h-121v252q0 38 -20 62t-57 24t-63.5 -24.5t-26.5 -61.5v-252h-119v445h119v-38q49 45 125 45q73 0 118 -44t45 -117v-291zM449 562q-6 -26 -20 -37q-7 -5 -39 -17q-19 -7 -35 -7q-18 0 -54.5 12.5t-50.5 12.5q-27 0 -59 -39l-51 33q34 67 95 67q19 0 56.5 -12.5 t56.5 -12.5q44 0 51 38z" />
<glyph unicode="&#xf2;" horiz-adv-x="584" d="M521 220q0 -104 -61 -167.5t-164 -63.5q-105 0 -165.5 62.5t-60.5 168.5q0 100 63.5 165.5t162.5 65.5t162 -65.5t63 -165.5zM394 219q0 125 -98 125q-51 0 -77 -39q-22 -33 -22 -86q0 -123 100 -123q97 0 97 123zM359 470h-55l-107 192h91z" />
<glyph unicode="&#xf3;" horiz-adv-x="592" d="M528 220q0 -104 -60.5 -167.5t-164.5 -63.5q-105 0 -165.5 62.5t-60.5 168.5q0 100 63.5 165.5t162.5 65.5t162 -65.5t63 -165.5zM402 219q0 125 -99 125q-51 0 -77 -39q-22 -33 -22 -86q0 -123 100 -123q98 0 98 123zM286 470h55l107 192h-91z" />
<glyph unicode="&#xf4;" horiz-adv-x="594" d="M523 220q0 -104 -61 -167.5t-165 -63.5q-105 0 -165 62.5t-60 168.5q0 100 63 165.5t162 65.5q100 0 163 -65.5t63 -165.5zM396 219q0 125 -99 125q-50 0 -76 -39q-22 -33 -22 -86q0 -123 99 -123q98 0 98 123zM440 470h-72l-70 127l-70 -127h-71l103 192h77z" />
<glyph unicode="&#xf5;" horiz-adv-x="604" d="M468 562q-7 -27 -20 -37q-6 -5 -39 -17q-19 -7 -35 -7q-19 0 -55 12.5t-51 12.5q-27 0 -59 -39l-50 33q33 67 95 67q19 0 56 -12.5t57 -12.5q43 0 50 38zM535 220q0 -104 -61 -167.5t-165 -63.5q-105 0 -165.5 62.5t-60.5 168.5q0 100 63.5 165.5t162.5 65.5 q100 0 163 -65.5t63 -165.5zM408 219q0 125 -99 125q-51 0 -77 -39q-22 -33 -22 -86q0 -123 100 -123q98 0 98 123z" />
<glyph unicode="&#xf6;" horiz-adv-x="615" d="M529 220q0 -104 -60.5 -167.5t-164.5 -63.5q-105 0 -165.5 62.5t-60.5 168.5q0 100 63.5 165.5t162.5 65.5t162 -65.5t63 -165.5zM403 219q0 125 -99 125q-51 0 -77 -39q-22 -33 -22 -86q0 -123 100 -123q98 0 98 123zM473 547q0 -27 -19.5 -46.5t-46.5 -19.5t-46.5 19.5 t-19.5 46.5t19.5 46t46.5 19t46.5 -19t19.5 -46zM279 547q0 -28 -19 -47t-47 -19q-27 0 -46 19.5t-19 46.5t19 46t46 19q28 0 47 -18.5t19 -46.5z" />
<glyph unicode="&#xf7;" horiz-adv-x="603" d="M399 456q0 -35 -25 -60.5t-60 -25.5t-59.5 25.5t-24.5 60.5q0 36 24 61t60 25t60.5 -25t24.5 -61zM558 207h-498v96h498v-96zM399 54q0 -35 -25 -58.5t-60 -23.5t-59.5 23.5t-24.5 58.5q0 34 25 57.5t59 23.5t59.5 -23.5t25.5 -57.5z" />
<glyph unicode="&#xf8;" horiz-adv-x="593" d="M526 221q0 -109 -59 -170.5t-167 -61.5q-105 0 -159 60q-67 75 -67 172q0 108 59 169.5t167 61.5q104 0 165 -63.5t61 -167.5zM357 318q-29 22 -57 22q-45 0 -71.5 -27t-26.5 -72q0 -37 19 -74zM401 214q0 30 -10 61l-143 -154q37 -19 53 -19q48 0 75 33q25 30 25 79z " />
<glyph unicode="&#xf9;" horiz-adv-x="568" d="M494 -1h-119v38q-49 -45 -125 -45q-73 0 -118 43.5t-45 116.5v291h121v-251q0 -38 20 -62t57 -24t63.5 24.5t26.5 61.5v251h119v-444zM365 470h-56l-107 192h91z" />
<glyph unicode="&#xfa;" horiz-adv-x="579" d="M494 -1h-120v38q-49 -45 -125 -45q-73 0 -118 43.5t-45 116.5v291h121v-251q0 -38 20 -62t57 -24t63.5 24.5t26.5 61.5v251h120v-444zM241 470h55l107 192h-91z" />
<glyph unicode="&#xfb;" horiz-adv-x="555" d="M483 -1h-120v38q-48 -45 -124 -45q-74 0 -118.5 43t-44.5 117v291h120v-251q0 -38 20 -62t57 -24t63.5 24.5t26.5 61.5v251h120v-444zM426 470h-72l-70 127l-70 -127h-71l103 192h78z" />
<glyph unicode="&#xfc;" horiz-adv-x="554" d="M477 -1h-120v38q-48 -45 -124 -45q-73 0 -118 43.5t-45 116.5v291h121v-251q0 -38 20 -62t57 -24t63 24.5t26 61.5v251h120v-444zM436 547q0 -27 -19 -46.5t-46 -19.5q-28 0 -47 19t-19 47t19 46.5t47 18.5q27 0 46 -19t19 -46zM243 547q0 -27 -19.5 -46.5t-46.5 -19.5 t-46.5 19.5t-19.5 46.5t19.5 46t46.5 19t46.5 -19t19.5 -46z" />
<glyph unicode="&#xfd;" horiz-adv-x="614" d="M561 443l-256 -626h-125l73 184l-179 442h124l121 -294l125 294h117zM241 470h55l107 192h-91z" />
<glyph unicode="&#xfe;" horiz-adv-x="566" d="M496 226q0 -89 -47 -153q-52 -71 -138 -71q-79 0 -120 35v-183h-121v740h121v-218q40 56 111 56q85 0 139.5 -60t54.5 -146zM389 213q0 42 -29 75t-70 33q-42 0 -70.5 -33t-28.5 -75t28.5 -74.5t70.5 -32.5q41 0 70 32.5t29 74.5z" />
<glyph unicode="&#xff;" horiz-adv-x="605" d="M553 443l-256 -626h-125l73 184l-179 442h124l121 -294l125 294h117zM479 547q0 -28 -19 -47t-47 -19q-27 0 -46 19.5t-19 46.5t19 46t46 19q28 0 47 -18.5t19 -46.5zM286 547q0 -27 -19.5 -46.5t-46.5 -19.5t-46.5 19.5t-19.5 46.5t19.5 46t46.5 19t46.5 -19t19.5 -46z " />
<glyph unicode="&#x152;" horiz-adv-x="1217" d="M1165 -3h-385v574h385v-102h-258v-112h158v-102h-158v-156h258v-102zM639 284q0 -137 -72 -214q-74 -80 -210 -80q-132 0 -208 82q-75 79 -75 212q0 136 74 214.5t209 78.5q134 0 208 -79t74 -214zM498 284q0 177 -141 177t-141 -177t141 -177t141 177z" />
<glyph unicode="&#x153;" horiz-adv-x="1110" d="M1059 165h-314q-1 -24 24 -44.5t51 -24.5q13 -2 28 -2q53 0 77 34l86 -64q-58 -75 -163 -75q-103 0 -164.5 62.5t-61.5 165.5q0 111 59.5 175t169.5 64q106 0 165 -91q43 -67 43 -200zM939 260q0 40 -27.5 67.5t-67.5 27.5t-70 -27.5t-30 -67.5h195zM509 220 q0 -104 -61 -167.5t-165 -63.5q-105 0 -165 62.5t-60 168.5q0 100 63 165.5t162 65.5q100 0 163 -65.5t63 -165.5zM382 219q0 125 -99 125q-50 0 -76 -39q-23 -34 -23 -86q0 -123 100 -123q98 0 98 123z" />
<glyph unicode="&#x178;" horiz-adv-x="658" d="M501 703q0 -27 -19.5 -46.5t-46.5 -19.5t-46.5 19.5t-19.5 46.5t19.5 46.5t46.5 19.5t46.5 -19.5t19.5 -46.5zM307 703q0 -27 -19 -46.5t-46 -19.5q-28 0 -47 19t-19 47t19 47t47 19q27 0 46 -19.5t19 -46.5zM614 571l-206 -352v-222h-134v215l-210 359h152l128 -235 l124 235h146z" />
<glyph unicode="&#x2c6;" horiz-adv-x="596" d="M457 470h-73l-70 127l-69 -127h-71l102 192h78z" />
<glyph unicode="&#x2dc;" horiz-adv-x="608" d="M473 562q-7 -27 -20 -37q-6 -5 -39 -17q-19 -7 -35 -7q-19 0 -55 12.5t-51 12.5q-27 0 -59 -39l-50 33q33 67 95 67q19 0 56 -12.5t57 -12.5q43 0 50 38z" />
<glyph unicode="&#x2000;" horiz-adv-x="400" />
<glyph unicode="&#x2001;" horiz-adv-x="800" />
<glyph unicode="&#x2002;" horiz-adv-x="400" />
<glyph unicode="&#x2003;" horiz-adv-x="800" />
<glyph unicode="&#x2004;" horiz-adv-x="266" />
<glyph unicode="&#x2005;" horiz-adv-x="200" />
<glyph unicode="&#x2006;" horiz-adv-x="133" />
<glyph unicode="&#x2007;" horiz-adv-x="133" />
<glyph unicode="&#x2008;" horiz-adv-x="100" />
<glyph unicode="&#x2009;" horiz-adv-x="160" />
<glyph unicode="&#x200a;" horiz-adv-x="44" />
<glyph unicode="&#x2011;" horiz-adv-x="372" d="M287 255h-193v102h193v-102z" />
<glyph unicode="&#x2013;" horiz-adv-x="500" d="M100 250v100h300v-100h-300z" />
<glyph unicode="&#x2014;" horiz-adv-x="1000" d="M100 250v100h800v-100h-800z" />
<glyph unicode="&#x2018;" horiz-adv-x="261" d="M208 498q0 -27 -19.5 -46.5t-46.5 -19.5t-46 19.5t-19 46.5q0 58 25 93q29 41 84 41v-25q-20 0 -34 -12.5t-15 -31.5q71 0 71 -65z" />
<glyph unicode="&#x2019;" horiz-adv-x="260" d="M197 528q0 -57 -26 -93q-29 -40 -84 -40l1 24q19 0 33 12.5t15 31.5q-30 0 -50.5 17.5t-20.5 47.5q0 28 19 47t47 19t47 -19t19 -47z" />
<glyph unicode="&#x201a;" horiz-adv-x="264" d="M198 189l-87 -260h-50l46 260h91z" />
<glyph unicode="&#x201c;" horiz-adv-x="421" d="M366 498q0 -27 -19.5 -46.5t-46.5 -19.5t-46.5 19.5t-19.5 46.5q0 57 26 93q29 41 84 41v-25q-20 0 -34 -12.5t-15 -31.5q71 0 71 -65zM199 498q0 -27 -19.5 -46.5t-46.5 -19.5t-46.5 19.5t-19.5 46.5q0 57 26 93q29 41 84 41l-1 -25q-19 0 -33 -12.5t-15 -31.5 q71 0 71 -65z" />
<glyph unicode="&#x201d;" horiz-adv-x="406" d="M190 528q0 -57 -26 -93q-29 -40 -84 -40l1 24q19 0 33 12.5t15 31.5q-30 0 -50.5 17.5t-20.5 47.5q0 28 19 47t47 19t47 -19t19 -47zM357 528q0 -57 -26 -93q-29 -40 -84 -40l1 24q19 0 33 12.5t15 31.5q-30 0 -50 17.5t-20 47.5q0 28 18.5 47t46.5 19t47 -19t19 -47z " />
<glyph unicode="&#x2026;" horiz-adv-x="637" d="M215 63q0 -28 -19 -47t-47 -19q-27 0 -46 19.5t-19 46.5t19 46.5t46 19.5q28 0 47 -19t19 -47zM391 63q0 -28 -19 -47t-47 -19q-27 0 -46 19.5t-19 46.5t19 46.5t46 19.5q28 0 47 -19t19 -47zM567 63q0 -28 -19 -47t-47 -19q-27 0 -46 19.5t-19 46.5t19 46.5t46 19.5 q28 0 47 -19t19 -47z" />
<glyph unicode="&#x202f;" horiz-adv-x="160" />
<glyph unicode="&#x2039;" horiz-adv-x="721" d="M621 218h-210l20 -95q1 -5 1 -9q0 -23 -22 -23q-12 0 -23 8l-279 209l279 210q11 8 23 8q22 0 22 -23q0 -4 -1 -9l-20 -96h210v-180z" />
<glyph unicode="&#x203a;" horiz-adv-x="724" d="M621 308l-279 -209q-11 -8 -23 -8q-21 0 -21 23q0 4 1 9l19 95h-210v180h210l-19 96q-1 5 -1 9q0 23 21 23q12 0 23 -8z" />
<glyph unicode="&#x205f;" horiz-adv-x="200" />
<glyph unicode="&#x2122;" horiz-adv-x="1370" d="M1301 -3h-136v349l-161 -349l-169 349v-349h-128v574h162l135 -282l134 282h163v-574zM561 456h-177v-459h-132v459h-178v115h487v-115z" />
</font>
</defs>
</svg>
